HIERARCHY
ROOT Hips
{
	OFFSET -0.179506 -22.333345 2.821913
	CHANNELS 6 Xposition Yposition Zposition Zrotation Yrotation Xrotation 
	JOINT LeftUpLeg
	{
		OFFSET 6.951974 -9.140623 -0.681533
		CHANNELS 3 Zrotation Yrotation Xrotation
		JOINT LeftLeg
		{
			OFFSET 3.427654 -37.519855 -0.449580
			CHANNELS 3 Zrotation Yrotation Xrotation
			JOINT LeftFoot
			{
				OFFSET -1.359570 -39.796059 -4.369333
				CHANNELS 3 Zrotation Yrotation Xrotation
				JOINT LeftToe
				{
					OFFSET 2.635814 -5.579078 11.928840
					CHANNELS 3 Zrotation Yrotation Xrotation
					End Site
					{
						OFFSET 0.000000 0.000000 0.000000
					}
				}
			}
		}
	}
	JOINT RightUpLeg
	{
		OFFSET -6.767048 -9.052170 -0.431982
		CHANNELS 3 Zrotation Yrotation Xrotation
		JOINT RightLeg
		{
			OFFSET -3.829005 -38.256897 -0.885003
			CHANNELS 3 Zrotation Yrotation Xrotation
			JOINT RightFoot
			{
				OFFSET 1.577377 -39.841461 -4.231180
				CHANNELS 3 Zrotation Yrotation Xrotation
				JOINT RightToe
				{
					OFFSET -2.537174 -4.814398 12.334795
					CHANNELS 3 Zrotation Yrotation Xrotation
					End Site
					{
						OFFSET 0.000000 0.000000 0.000000
					}
				}
			}
		}
	}
	JOINT Spine
	{
		OFFSET -0.253288 10.896323 -2.669631
		CHANNELS 3 Zrotation Yrotation Xrotation
		JOINT Spine1
		{
			OFFSET 0.548704 13.518043 0.109247
			CHANNELS 3 Zrotation Yrotation Xrotation
			JOINT Spine2
			{
				OFFSET 0.145701 5.292222 2.542457
				CHANNELS 3 Zrotation Yrotation Xrotation
				JOINT Neck
				{
					OFFSET -0.277840 21.387037 -4.285703
					CHANNELS 3 Zrotation Yrotation Xrotation
					JOINT Head
					{
						OFFSET 0.515184 6.496960 5.134897
						CHANNELS 3 Zrotation Yrotation Xrotation
						End Site
						{
							OFFSET 0.000000 0.000000 0.000000
						}
					}
				}
				JOINT LeftShoulder
				{
					OFFSET 7.884473 12.174932 -3.408961
					CHANNELS 3 Zrotation Yrotation Xrotation
					JOINT LeftArm
					{
						OFFSET 9.097692 3.046888 -0.886815
						CHANNELS 3 Zrotation Yrotation Xrotation
						JOINT LeftForeArm
						{
							OFFSET 25.961220 -1.277207 -2.745643
							CHANNELS 3 Zrotation Yrotation Xrotation
							JOINT LeftHand
							{
								OFFSET 24.923361 0.898606 -0.117091
								CHANNELS 3 Zrotation Yrotation Xrotation
								End Site
								{
									OFFSET 0.000000 0.000000 0.000000
								}
							}
						}
					}
				}
				JOINT RightShoulder
				{
					OFFSET -8.175920 11.883285 -3.861528
					CHANNELS 3 Zrotation Yrotation Xrotation
					JOINT RightArm
					{
						OFFSET -9.601238 3.255117 -0.914307
						CHANNELS 3 Zrotation Yrotation Xrotation
						JOINT RightForeArm
						{
							OFFSET -25.374195 -1.332924 -2.140099
							CHANNELS 3 Zrotation Yrotation Xrotation
							JOINT RightHand
							{
								OFFSET -25.529810 0.777228 -0.555919
								CHANNELS 3 Zrotation Yrotation Xrotation
								End Site
								{
									OFFSET 0.000000 0.000000 0.000000
								}
							}
						}
					}
				}
			}
		}
	}
}
MOTION
Frames: 15
Frame Time: 0.033333
-13.672266 -12.051331 98.697403 -49.602162 -0.628793 88.224940 -0.022496 -0.578318 -6.487082 -3.953665 4.911190 -4.534485 6.284069 8.207273 6.290967 nan nan nan -6.267113 -1.419832 12.631652 6.518234 4.111488 25.705912 16.135108 5.589601 0.462074 nan nan nan -0.807072 7.945689 -1.445191 1.161932 -0.298134 10.858884 -1.709887 2.820549 -1.939521 1.889966 1.042423 7.837220 0.049611 -4.228195 -8.461684 -20.956918 7.952879 -0.772264 -66.465247 6.001922 11.479030 17.116862 -23.853782 -11.601864 -12.106827 -15.952317 2.433929 21.027881 1.875670 4.332153 67.017022 6.243271 11.176671 -17.275034 24.136316 -17.734242 3.553928 13.213988 -6.677619 
-13.186332 -11.421688 98.609398 -49.786761 -0.645373 88.312214 0.104478 -0.638957 -7.118788 -3.923474 5.327792 -4.511409 6.167083 8.026729 6.834797 nan nan nan -6.069684 -1.362728 13.115430 6.178071 4.490771 24.054727 16.095169 5.543381 0.394417 nan nan nan -0.735680 8.141581 -1.404619 1.105454 -0.295552 10.740696 -1.679055 2.818109 -1.893011 1.898189 1.139718 7.762051 0.041223 -4.111513 -8.578433 -20.969733 7.948068 -0.787078 -66.579935 6.193196 11.371938 17.286018 -23.976597 -11.852508 -12.215249 -15.833664 2.264655 20.919107 1.921514 4.234737 67.045586 6.450044 11.328574 -17.431827 24.606937 -17.809986 3.584325 13.136861 -6.752038 
-12.665372 -10.773916 98.521614 -49.968954 -0.672769 88.398553 0.187559 -0.745452 -7.776471 -3.847114 5.723223 -4.440044 6.065934 7.975320 7.308738 nan nan nan -5.946600 -1.320919 13.474246 5.978336 4.823010 22.601796 15.994737 5.803171 0.021150 nan nan nan -0.649647 8.322699 -1.351158 1.033168 -0.298557 10.683187 -1.655884 2.822331 -1.881111 1.818731 1.215636 7.706266 0.081844 -3.893344 -8.684724 -21.017107 7.996835 -0.872801 -66.754385 6.299509 11.284124 17.576630 -24.023363 -12.059238 -12.457289 -15.691011 2.148345 20.782670 1.932131 4.114241 67.099898 6.729909 11.422391 -17.583400 25.042464 -18.042473 3.750648 13.168365 -6.657222 
-12.122965 -10.112983 98.444626 -50.189026 -0.625886 88.509537 0.361138 -0.757598 -8.499249 -3.778839 6.089995 -4.335532 5.935308 7.892706 7.801070 nan nan nan -5.690521 -1.227580 13.752733 5.786453 5.328072 21.161641 15.952897 6.043393 -0.565989 nan nan nan -0.436115 8.499401 -1.275974 0.951940 -0.300490 10.613320 -1.659718 2.872353 -1.960449 1.688801 1.192908 7.658124 0.131588 -3.773422 -8.660370 -21.089057 7.947823 -0.854809 -66.876010 6.413855 11.274476 17.807113 -24.102553 -12.175874 -12.452800 -15.540276 1.923497 20.661702 2.015555 4.172735 67.153061 6.981015 11.402334 -17.815417 25.626337 -18.371345 3.680702 13.244514 -6.861923 
-11.572279 -9.403075 98.345337 -50.457690 -0.553262 88.730592 0.608325 -0.731796 -9.449052 -3.692581 6.508094 -4.084226 5.707094 7.821491 8.303327 nan nan nan -5.347681 -1.060772 13.810597 5.553106 5.901701 19.796309 15.940366 6.250411 -1.294287 nan nan nan -0.199797 8.633763 -1.196976 0.799400 -0.362970 10.426140 -1.654419 2.941968 -2.062747 1.545460 1.195464 7.679213 0.234545 -3.762236 -8.690917 -21.129206 8.022177 -0.816822 -66.900376 6.613286 11.198062 17.875517 -24.366222 -12.091369 -12.258774 -15.558059 1.696195 20.588050 2.172192 4.473627 67.175354 7.371896 11.390285 -17.965622 26.267206 -18.529318 3.186185 13.480629 -7.157363 
-11.015121 -8.671681 98.227562 -50.696733 -0.529440 88.827624 0.799689 -0.624877 -10.263019 -3.629474 6.794425 -3.851762 5.516925 7.766855 8.767109 nan nan nan -5.081227 -0.904966 13.952703 5.414880 6.506179 18.556040 15.581416 6.414761 -2.296947 nan nan nan -0.050790 8.762078 -0.966159 0.674230 -0.398396 10.205563 -1.618869 2.972745 -2.061894 1.475321 1.196569 7.568673 0.275146 -3.757371 -8.733000 -21.120864 8.134572 -0.892222 -66.950698 6.613114 11.190935 17.842318 -24.434850 -11.975763 -12.235742 -15.518860 1.367290 20.538614 2.223796 4.546783 67.148674 7.750816 11.539702 -18.106293 26.844131 -18.462350 2.950433 13.571392 -7.393108 
-10.456516 -7.941500 98.082939 -50.859096 -0.502770 88.861093 0.992332 -0.594955 -10.932105 -3.573566 7.020883 -3.764715 5.321049 7.742926 9.171009 nan nan nan -4.789078 -0.743853 14.143421 5.340380 7.128951 17.488085 14.955962 6.380805 -3.567209 nan nan nan 0.140675 8.875418 -0.701451 0.535473 -0.431539 9.948927 -1.586828 2.935962 -1.888061 1.437954 1.145009 7.238845 0.266320 -3.689504 -8.641330 -21.069730 8.092372 -0.993247 -67.070400 6.628455 11.246961 17.921065 -24.514044 -11.835632 -12.250742 -15.501808 0.871966 20.363123 2.256724 4.344009 67.219626 8.024216 11.791842 -18.216213 27.442768 -18.408430 2.780728 13.590994 -7.891395 
-9.885674 -7.213099 97.946503 -50.950948 -0.496771 88.851653 1.166146 -0.694491 -11.552795 -3.530091 7.206972 -3.634597 5.173621 7.818257 9.442827 nan nan nan -4.510604 -0.554938 14.318207 5.326515 7.725361 16.604663 14.172753 6.163167 -4.841232 nan nan nan 0.312082 8.988107 -0.446257 0.411833 -0.460643 9.867796 -1.543867 2.901998 -1.742730 1.419778 1.111494 6.776639 0.245804 -3.660908 -8.496855 -21.063176 7.995428 -1.103080 -67.206355 6.570591 11.242075 18.002231 -24.602556 -11.894324 -12.214004 -15.526449 0.698197 20.203816 2.275771 3.978801 67.277514 8.181477 12.043271 -18.352146 28.018188 -18.476444 2.613242 13.712241 -8.410969 
-9.323993 -6.466430 97.804237 -51.011165 -0.467674 88.760252 1.363430 -0.694309 -12.142805 -3.482349 7.409916 -3.426839 4.951855 7.911592 9.595045 nan nan nan -4.217073 -0.498012 14.510127 5.269672 8.113603 15.860911 13.485968 6.030607 -5.882770 nan nan nan 0.519921 9.067100 -0.032038 0.310134 -0.499903 9.821556 -1.534433 2.913506 -1.773463 1.421530 1.092712 6.469109 0.224105 -3.690327 -8.435521 -21.149992 7.849614 -1.091821 -67.234816 6.448178 11.195319 18.097445 -24.705733 -11.902857 -12.168099 -15.450936 0.531011 20.103676 2.371230 3.970386 67.312829 8.406606 12.005226 -18.589169 28.790482 -18.607124 2.354090 13.744859 -8.701727 
-8.754001 -5.695200 97.693390 -51.057101 -0.357238 88.642248 1.637988 -0.613657 -12.679140 -3.440796 7.494771 -3.237625 4.548155 7.980746 9.679946 nan nan nan -3.843383 -0.497041 14.750979 5.213031 8.433353 14.982858 12.840827 5.836265 -6.809988 nan nan nan 0.863863 9.044031 0.461542 0.222498 -0.561103 9.649683 -1.560933 2.954225 -1.708068 1.403485 1.142470 6.245627 0.166682 -3.719049 -8.495090 -21.328944 7.731952 -1.156275 -67.103856 6.339272 11.197928 18.036073 -24.812577 -11.629965 -12.247192 -15.400798 0.585017 20.026571 2.433916 3.988966 67.277688 8.701153 11.801606 -18.668729 29.647526 -18.555568 2.281751 13.825052 -8.704342 
-8.189384 -4.931441 97.583176 -51.099964 -0.240947 88.498265 1.870331 -0.421949 -13.209160 -3.329960 7.649274 -2.955829 4.004536 7.932529 9.501543 nan nan nan -3.562872 -0.594063 15.011505 5.143295 8.511849 14.028822 12.327730 5.730044 -7.578242 nan nan nan 1.221543 8.997019 1.053859 0.104340 -0.622225 9.343070 -1.577938 2.943455 -1.561150 1.425175 1.412828 5.976127 0.107436 -3.721878 -8.480299 -21.489734 7.602757 -1.319877 -66.963001 6.426412 11.366472 17.986858 -24.942139 -11.308578 -12.016933 -15.874003 0.574359 19.929712 2.500721 3.829794 67.225933 8.883732 11.747475 -18.667151 30.440451 -18.525474 1.926307 14.160642 -8.904978 
-7.617889 -4.193234 97.476456 -51.065847 -0.136030 88.228460 2.025953 -0.172631 -13.643720 -3.210387 7.630215 -2.560296 3.292303 8.039287 9.046117 nan nan nan -3.324983 -0.812843 15.425351 5.117963 8.556874 13.059437 11.658565 5.346363 -8.399893 nan nan nan 1.576528 8.936501 1.733850 -0.017939 -0.733969 9.059402 -1.535285 2.935532 -1.300780 1.457012 1.519747 5.669437 0.061649 -3.631142 -8.606251 -21.640641 7.426123 -1.353844 -66.981734 6.116008 11.376176 18.060644 -24.936438 -11.435090 -11.900271 -15.695215 0.342047 19.730431 2.616175 3.787490 67.179200 9.111629 11.535494 -18.683013 31.351483 -18.419105 1.531695 14.058129 -8.985963 
-7.046450 -3.411126 97.391006 -50.972030 0.113202 87.993713 2.322442 0.235372 -14.228473 -3.028215 7.652328 -1.984473 2.424603 8.064177 8.479739 nan nan nan -2.837169 -1.012726 15.873678 5.040236 8.471209 11.926441 10.997010 4.988816 -8.977402 nan nan nan 2.059536 8.800449 2.348469 -0.099277 -0.871694 8.828934 -1.507906 2.927450 -1.128637 1.446567 1.566648 5.560747 -0.069401 -3.638206 -8.761392 -21.835992 7.189246 -1.342273 -66.936319 5.875422 11.448267 18.133185 -24.904172 -11.122278 -11.842998 -15.870185 0.244575 19.518167 2.823827 3.739614 67.136820 9.275183 11.388664 -18.661070 32.246388 -18.104513 1.324453 14.127700 -9.467317 
-6.477261 -2.651273 97.307838 -50.897279 0.304939 87.740362 2.583876 0.532696 -14.712897 -2.851948 7.816071 -1.536335 1.551090 8.189997 7.880986 nan nan nan -2.478227 -1.210813 16.401790 4.972008 8.320530 10.676225 10.524750 4.742845 -9.362751 nan nan nan 2.526282 8.776265 2.891648 -0.191946 -1.038415 8.862152 -1.548684 2.834364 -1.111353 1.469134 1.622042 5.247186 -0.153108 -3.756884 -8.678760 -21.999984 7.132613 -1.403640 -66.868302 5.577354 11.595566 18.224142 -24.956495 -11.048361 -11.954971 -16.048461 0.193337 19.476455 2.957677 3.575128 66.984004 9.388384 11.471451 -18.741482 33.172078 -17.982931 1.587924 14.434901 -9.856273 
-5.901139 -1.895282 97.243423 -50.823606 0.435134 87.410543 2.781313 0.764940 -15.077705 -2.677327 8.006197 -1.103310 0.746234 8.378245 7.226225 nan nan nan -2.270992 -1.466834 16.980016 4.966807 8.138244 9.458286 10.154406 4.522329 -9.615661 nan nan nan 2.908288 8.750026 3.560802 -0.258367 -1.168577 8.799989 -1.544683 2.763928 -0.991306 1.501395 1.764492 4.891031 -0.187496 -3.871873 -8.730032 -22.193152 6.972605 -1.584325 -66.824067 5.277570 11.755632 18.338112 -24.852042 -11.108570 -12.019547 -16.449579 -0.120643 19.443805 3.162621 3.318643 66.797625 9.342103 11.511725 -18.816497 34.019560 -17.791899 1.478264 14.913580 -10.006876 
